<svg xmlns="http://www.w3.org/2000/svg" xmlns:xlink="http://www.w3.org/1999/xlink" width="190px" height="70px" viewBox="0 0 188 70"><g id="surface1"><path style=" stroke:none;fill-rule:nonzero;fill:rgb(0%,68.627453%,93.725491%);fill-opacity:1;" d="M 6.582031 33.0625 L 6.582031 16.410156 L 0 16.410156 L 0 11.066406 L 19.25 11.066406 L 19.25 16.410156 L 12.664062 16.410156 L 12.664062 33.0625 Z M 6.582031 33.0625 "></path><path style=" stroke:none;fill-rule:nonzero;fill:rgb(0%,68.627453%,93.725491%);fill-opacity:1;" d="M 27.777344 33.222656 L 20.441406 11.066406 L 26.867188 11.066406 L 30.691406 23.792969 L 34.921875 11.003906 L 40.160156 11.003906 L 44.390625 23.792969 L 48.214844 11.066406 L 54.519531 11.066406 L 47.183594 33.222656 L 41.882812 33.222656 L 37.464844 20.554688 L 33.074219 33.222656 Z M 27.777344 33.222656 "></path><path style=" stroke:none;fill-rule:nonzero;fill:rgb(0%,68.627453%,93.725491%);fill-opacity:1;" d="M 57.058594 11.066406 L 63.171875 11.066406 L 63.171875 33.066406 L 57.058594 33.066406 Z M 57.058594 11.066406 "></path><path style=" stroke:none;fill-rule:nonzero;fill:rgb(0%,68.627453%,93.725491%);fill-opacity:1;" d="M 67.183594 33.0625 L 67.183594 11.066406 L 72.859375 11.066406 L 81.886719 22.695312 L 81.886719 11.066406 L 87.90625 11.066406 L 87.90625 33.0625 L 82.578125 33.0625 L 73.203125 20.996094 L 73.203125 33.0625 Z M 67.183594 33.0625 "></path><path style=" stroke:none;fill-rule:nonzero;fill:rgb(10.980392%,30.19608%,52.549022%);fill-opacity:1;" d="M 107.976562 33.503906 C 104.820312 33.503906 102.148438 32.421875 99.953125 30.25 C 97.757812 28.082031 96.660156 25.375 96.660156 22.128906 L 96.660156 22.066406 C 96.660156 18.839844 97.761719 16.125 99.96875 13.925781 C 102.171875 11.726562 104.929688 10.625 108.226562 10.625 C 112.242188 10.625 115.34375 12.15625 117.542969 15.214844 L 112.964844 18.765625 C 111.582031 17.046875 109.984375 16.1875 108.164062 16.1875 C 106.660156 16.1875 105.414062 16.75 104.417969 17.871094 C 103.425781 18.992188 102.929688 20.367188 102.929688 22.003906 L 102.929688 22.066406 C 102.929688 23.742188 103.421875 25.140625 104.40625 26.261719 C 105.386719 27.378906 106.640625 27.941406 108.164062 27.941406 C 109.234375 27.941406 110.140625 27.71875 110.894531 27.265625 C 111.648438 26.816406 112.386719 26.152344 113.121094 25.269531 L 117.695312 28.539062 C 116.546875 30.109375 115.210938 31.332031 113.683594 32.199219 C 112.160156 33.070312 110.253906 33.503906 107.976562 33.503906 Z M 107.976562 33.503906 "></path><path style=" stroke:none;fill-rule:nonzero;fill:rgb(10.980392%,30.19608%,52.549022%);fill-opacity:1;" d="M 171.777344 33.0625 L 171.777344 11.066406 L 177.859375 11.066406 L 177.859375 27.722656 L 188.488281 27.722656 L 188.488281 33.0625 Z M 171.777344 33.0625 "></path><path style=" stroke:none;fill-rule:nonzero;fill:rgb(0%,68.627453%,93.725491%);fill-opacity:1;" d="M 120.003906 14.761719 C 120.003906 14.761719 122.394531 10.855469 128.652344 9.195312 C 131.730469 8.363281 136.101562 7.738281 138.078125 7.542969 C 140.050781 7.351562 144.195312 6.210938 144.511719 3.660156 C 144.832031 1.109375 143.410156 0 143.410156 0 C 143.410156 0 142.082031 3.207031 137.152344 4.398438 C 132.222656 5.589844 124.378906 6.3125 120.003906 14.761719 Z M 120.003906 14.761719 "></path><path style=" stroke:none;fill-rule:nonzero;fill:rgb(10.980392%,30.19608%,52.549022%);fill-opacity:1;" d="M 150.378906 2.6875 C 146.082031 8.113281 140.492188 8.632812 131.121094 10.078125 C 129.242188 10.367188 127.578125 10.867188 126.125 11.457031 L 126.125 11.460938 C 124.722656 12.019531 123.453125 12.847656 122.320312 13.957031 C 120.054688 16.179688 118.921875 18.878906 118.921875 22.066406 L 118.921875 22.125 C 118.921875 25.3125 120.042969 28.003906 122.289062 30.203125 C 124.535156 32.402344 127.34375 33.503906 130.707031 33.503906 C 134.074219 33.503906 136.890625 32.394531 139.15625 30.171875 C 141.425781 27.953125 142.558594 25.25 142.558594 22.066406 L 142.558594 22 C 142.558594 19.5 141.851562 17.304688 140.464844 15.410156 C 139.210938 15.625 138.046875 15.789062 136.976562 15.933594 C 135.574219 16.121094 134.269531 16.300781 132.957031 16.570312 C 133.625 16.863281 134.222656 17.292969 134.753906 17.871094 C 135.820312 19.03125 136.351562 20.429688 136.351562 22.066406 L 136.351562 22.125 C 136.351562 23.761719 135.828125 25.152344 134.785156 26.292969 C 133.738281 27.433594 132.402344 28.003906 130.769531 28.003906 C 129.140625 28.003906 127.796875 27.421875 126.742188 26.261719 C 125.6875 25.097656 125.15625 23.699219 125.15625 22.066406 L 125.15625 22 C 125.15625 20.367188 125.675781 18.980469 126.710938 17.839844 C 127.238281 17.257812 128.027344 16.785156 128.53125 16.546875 C 129.308594 16.179688 130.09375 15.972656 130.84375 15.761719 C 134.746094 14.652344 138.183594 14.730469 143.21875 13.542969 C 152.15625 11.425781 150.378906 2.6875 150.378906 2.6875 Z M 150.378906 2.6875 "></path><path style=" stroke:none;fill-rule:nonzero;fill:rgb(10.980392%,30.19608%,52.549022%);fill-opacity:1;" d="M 164.542969 22.585938 L 162.832031 22.585938 L 163.636719 23.390625 C 163.839844 23.597656 163.839844 23.925781 163.636719 24.128906 C 163.535156 24.230469 163.402344 24.28125 163.269531 24.28125 C 163.136719 24.28125 163.003906 24.230469 162.902344 24.128906 L 162.082031 23.304688 C 161.976562 23.886719 161.773438 24.421875 161.507812 24.925781 L 162.574219 24.925781 C 162.859375 24.925781 163.09375 25.15625 163.09375 25.445312 C 163.09375 25.734375 162.859375 25.964844 162.574219 25.964844 L 161.433594 25.964844 L 162.644531 27.179688 C 162.84375 27.382812 162.84375 27.710938 162.644531 27.914062 C 162.542969 28.015625 162.410156 28.066406 162.277344 28.066406 C 162.144531 28.066406 162.011719 28.015625 161.910156 27.914062 L 160.699219 26.703125 L 160.699219 27.84375 C 160.699219 28.132812 160.46875 28.367188 160.179688 28.367188 C 159.894531 28.367188 159.660156 28.132812 159.660156 27.84375 L 159.660156 26.972656 C 159.234375 27.246094 158.769531 27.445312 158.269531 27.574219 L 158.867188 28.175781 C 159.070312 28.378906 159.070312 28.707031 158.867188 28.910156 C 158.664062 29.113281 158.335938 29.113281 158.132812 28.910156 L 157.328125 28.101562 L 157.328125 29.816406 C 157.328125 30.105469 157.09375 30.335938 156.808594 30.335938 C 156.519531 30.335938 156.289062 30.105469 156.289062 29.816406 L 156.289062 28.101562 L 155.480469 28.910156 C 155.28125 29.113281 154.949219 29.113281 154.746094 28.910156 C 154.546875 28.707031 154.546875 28.378906 154.746094 28.175781 L 155.355469 27.566406 C 154.851562 27.429688 154.382812 27.226562 153.953125 26.941406 L 153.953125 27.84375 C 153.953125 28.132812 153.722656 28.367188 153.433594 28.367188 C 153.144531 28.367188 152.914062 28.132812 152.914062 27.84375 L 152.914062 26.703125 L 151.707031 27.914062 C 151.605469 28.015625 151.472656 28.066406 151.339844 28.066406 C 151.207031 28.066406 151.070312 28.015625 150.972656 27.914062 C 150.769531 27.710938 150.769531 27.382812 150.972656 27.179688 L 152.179688 25.964844 L 151.039062 25.964844 C 150.753906 25.964844 150.519531 25.734375 150.519531 25.445312 C 150.519531 25.15625 150.753906 24.925781 151.039062 24.925781 L 152.136719 24.925781 C 151.863281 24.414062 151.65625 23.875 151.546875 23.292969 L 150.710938 24.128906 C 150.609375 24.230469 150.476562 24.28125 150.34375 24.28125 C 150.210938 24.28125 150.078125 24.230469 149.980469 24.128906 C 149.773438 23.925781 149.773438 23.597656 149.980469 23.390625 L 150.785156 22.585938 L 149.074219 22.585938 C 148.789062 22.585938 148.554688 22.351562 148.554688 22.066406 C 148.554688 21.777344 148.789062 21.542969 149.074219 21.542969 L 150.785156 21.542969 L 149.980469 20.738281 C 149.773438 20.53125 149.773438 20.203125 149.980469 20 C 150.179688 19.796875 150.507812 19.796875 150.710938 20 L 151.53125 20.824219 C 151.636719 20.242188 151.839844 19.707031 152.101562 19.203125 L 151.039062 19.203125 C 150.753906 19.203125 150.519531 18.96875 150.519531 18.683594 C 150.519531 18.394531 150.753906 18.164062 151.039062 18.164062 L 152.179688 18.164062 L 150.972656 16.953125 C 150.769531 16.75 150.769531 16.417969 150.972656 16.214844 C 151.175781 16.011719 151.503906 16.011719 151.707031 16.214844 L 152.914062 17.429688 L 152.914062 16.285156 C 152.914062 15.996094 153.144531 15.765625 153.433594 15.765625 C 153.722656 15.765625 153.953125 15.996094 153.953125 16.285156 L 153.953125 17.148438 C 154.378906 16.875 154.839844 16.675781 155.339844 16.546875 L 154.746094 15.953125 C 154.546875 15.75 154.546875 15.421875 154.746094 15.21875 C 154.949219 15.015625 155.28125 15.015625 155.480469 15.21875 L 156.289062 16.027344 L 156.289062 14.3125 C 156.289062 14.023438 156.519531 13.792969 156.808594 13.792969 C 157.09375 13.792969 157.328125 14.023438 157.328125 14.3125 L 157.328125 16.027344 L 158.132812 15.21875 C 158.335938 15.015625 158.664062 15.015625 158.867188 15.21875 C 159.070312 15.421875 159.070312 15.75 158.867188 15.953125 L 158.253906 16.570312 C 158.757812 16.707031 159.230469 16.914062 159.660156 17.199219 L 159.660156 16.285156 C 159.660156 15.996094 159.894531 15.765625 160.179688 15.765625 C 160.46875 15.765625 160.699219 15.996094 160.699219 16.285156 L 160.699219 17.429688 L 161.910156 16.214844 C 162.109375 16.011719 162.441406 16.011719 162.644531 16.214844 C 162.84375 16.417969 162.84375 16.75 162.644531 16.953125 L 161.433594 18.164062 L 162.574219 18.164062 C 162.859375 18.164062 163.09375 18.394531 163.09375 18.683594 C 163.09375 18.96875 162.859375 19.203125 162.574219 19.203125 L 161.46875 19.203125 C 161.75 19.710938 161.957031 20.253906 162.070312 20.839844 L 162.902344 20 C 163.105469 19.796875 163.433594 19.796875 163.636719 20 C 163.839844 20.203125 163.839844 20.53125 163.636719 20.738281 L 162.832031 21.542969 L 164.542969 21.542969 C 164.828125 21.542969 165.0625 21.777344 165.0625 22.066406 C 165.0625 22.351562 164.828125 22.585938 164.542969 22.585938 Z M 165.242188 13.925781 C 162.996094 11.726562 160.1875 10.625 156.824219 10.625 C 153.457031 10.625 150.640625 11.738281 148.375 13.957031 C 146.105469 16.179688 144.972656 18.882812 144.972656 22.066406 L 144.972656 22.128906 C 144.972656 25.3125 146.09375 28.003906 148.34375 30.203125 C 150.589844 32.40625 153.394531 33.503906 156.757812 33.503906 C 160.125 33.503906 162.941406 32.394531 165.207031 30.171875 C 167.476562 27.953125 168.613281 25.25 168.613281 22.066406 L 168.613281 22.003906 C 168.613281 18.816406 167.488281 16.125 165.242188 13.925781 Z M 165.242188 13.925781 "></path><path style=" stroke:none;fill-rule:nonzero;fill:rgb(10.980392%,30.19608%,52.549022%);fill-opacity:1;" d="M 37.503906 48.414062 L 37.503906 41.191406 L 41.074219 41.191406 L 41.074219 41.804688 L 38.160156 41.804688 L 38.160156 44.070312 L 41.074219 44.070312 L 41.074219 44.683594 L 38.160156 44.683594 L 38.160156 47.796875 L 41.074219 47.796875 L 41.074219 48.414062 Z M 50.546875 48.414062 L 50.546875 40.886719 L 55.648438 46.925781 L 55.648438 41.191406 L 56.261719 41.191406 L 56.261719 48.625 L 51.164062 42.570312 L 51.164062 48.414062 Z M 71.835938 43.007812 C 71.546875 42.554688 71.1875 42.207031 70.757812 41.972656 C 70.332031 41.742188 69.851562 41.625 69.316406 41.625 C 68.425781 41.625 67.695312 41.925781 67.136719 42.53125 C 66.574219 43.136719 66.292969 43.921875 66.292969 44.886719 C 66.292969 45.316406 66.367188 45.722656 66.519531 46.105469 C 66.667969 46.484375 66.886719 46.824219 67.171875 47.121094 C 67.460938 47.414062 67.78125 47.632812 68.140625 47.78125 C 68.5 47.925781 68.890625 48 69.316406 48 C 70.125 48 70.78125 47.757812 71.289062 47.28125 C 71.796875 46.804688 72.054688 46.183594 72.070312 45.414062 L 69.582031 45.414062 L 69.582031 44.847656 L 72.785156 44.847656 L 72.785156 44.925781 C 72.785156 46.074219 72.472656 46.976562 71.84375 47.628906 C 71.21875 48.28125 70.355469 48.605469 69.253906 48.605469 C 68.164062 48.605469 67.277344 48.257812 66.601562 47.558594 C 65.925781 46.863281 65.589844 45.949219 65.589844 44.816406 C 65.589844 44.296875 65.675781 43.804688 65.84375 43.34375 C 66.015625 42.882812 66.261719 42.480469 66.582031 42.136719 C 66.929688 41.765625 67.324219 41.488281 67.761719 41.304688 C 68.199219 41.121094 68.691406 41.027344 69.226562 41.027344 C 69.960938 41.027344 70.585938 41.160156 71.109375 41.425781 C 71.628906 41.691406 72.03125 42.078125 72.3125 42.59375 Z M 82.035156 48.414062 L 82.035156 41.191406 L 82.691406 41.191406 L 82.691406 48.414062 Z M 92.359375 48.414062 L 92.359375 40.886719 L 97.457031 46.925781 L 97.457031 41.191406 L 98.074219 41.191406 L 98.074219 48.625 L 92.972656 42.570312 L 92.972656 48.414062 Z M 107.742188 48.414062 L 107.742188 41.191406 L 111.308594 41.191406 L 111.308594 41.804688 L 108.398438 41.804688 L 108.398438 44.070312 L 111.308594 44.070312 L 111.308594 44.683594 L 108.398438 44.683594 L 108.398438 47.796875 L 111.308594 47.796875 L 111.308594 48.414062 Z M 120.785156 48.414062 L 120.785156 41.191406 L 124.355469 41.191406 L 124.355469 41.804688 L 121.441406 41.804688 L 121.441406 44.070312 L 124.355469 44.070312 L 124.355469 44.683594 L 121.441406 44.683594 L 121.441406 47.796875 L 124.355469 47.796875 L 124.355469 48.414062 Z M 134.484375 41.765625 L 134.484375 44.433594 L 135.144531 44.433594 C 135.753906 44.433594 136.179688 44.335938 136.421875 44.140625 C 136.664062 43.945312 136.785156 43.609375 136.785156 43.140625 C 136.785156 42.644531 136.660156 42.289062 136.410156 42.082031 C 136.160156 41.871094 135.738281 41.765625 135.144531 41.765625 Z M 138.203125 48.414062 L 137.40625 48.414062 L 134.878906 44.96875 L 134.484375 44.96875 L 134.484375 48.414062 L 133.832031 48.414062 L 133.832031 41.191406 L 135.152344 41.191406 C 135.933594 41.191406 136.519531 41.351562 136.90625 41.675781 C 137.292969 42.003906 137.488281 42.496094 137.488281 43.15625 C 137.488281 43.71875 137.324219 44.160156 136.988281 44.484375 C 136.65625 44.804688 136.199219 44.96875 135.617188 44.96875 Z M 146.46875 47.199219 L 147.03125 46.898438 C 147.136719 47.253906 147.316406 47.527344 147.574219 47.722656 C 147.832031 47.921875 148.144531 48.019531 148.503906 48.019531 C 148.957031 48.019531 149.316406 47.882812 149.570312 47.613281 C 149.828125 47.34375 149.957031 46.972656 149.957031 46.492188 C 149.957031 46.144531 149.871094 45.855469 149.695312 45.625 C 149.523438 45.394531 149.152344 45.128906 148.585938 44.824219 C 147.863281 44.441406 147.378906 44.101562 147.140625 43.808594 C 146.898438 43.515625 146.78125 43.164062 146.78125 42.753906 C 146.78125 42.238281 146.953125 41.824219 147.300781 41.5 C 147.644531 41.179688 148.09375 41.019531 148.644531 41.019531 C 149.003906 41.019531 149.320312 41.09375 149.585938 41.246094 C 149.851562 41.398438 150.070312 41.628906 150.238281 41.933594 L 149.734375 42.238281 C 149.628906 42.03125 149.480469 41.875 149.289062 41.765625 C 149.097656 41.65625 148.871094 41.605469 148.605469 41.605469 C 148.253906 41.605469 147.972656 41.707031 147.761719 41.917969 C 147.550781 42.125 147.445312 42.410156 147.445312 42.761719 C 147.445312 43.269531 147.863281 43.742188 148.695312 44.179688 C 148.847656 44.257812 148.960938 44.320312 149.039062 44.363281 C 149.652344 44.699219 150.0625 45.019531 150.269531 45.320312 C 150.476562 45.621094 150.578125 46.011719 150.578125 46.492188 C 150.578125 47.140625 150.390625 47.65625 150.015625 48.035156 C 149.636719 48.414062 149.121094 48.605469 148.472656 48.605469 C 148 48.605469 147.59375 48.488281 147.257812 48.253906 C 146.921875 48.015625 146.65625 47.664062 146.46875 47.199219 Z M 146.46875 47.199219 "></path><path style=" stroke:none;fill-rule:nonzero;fill:rgb(10.980392%,30.19608%,52.549022%);fill-opacity:1;" d="M 47.863281 61.539062 L 46.96875 61.539062 L 46.96875 65.046875 L 43.058594 65.046875 L 43.058594 61.539062 L 42.167969 61.539062 L 42.167969 69.742188 L 43.058594 69.742188 L 43.058594 65.824219 L 46.96875 65.824219 L 46.96875 69.742188 L 47.863281 69.742188 Z M 54.222656 61.539062 L 52.859375 65.664062 C 52.492188 66.738281 52.160156 67.804688 51.945312 68.765625 L 51.914062 68.765625 C 51.699219 67.804688 51.398438 66.769531 51.054688 65.660156 L 49.796875 61.539062 L 48.828125 61.539062 L 51.417969 69.742188 L 52.363281 69.742188 L 55.179688 61.539062 Z M 59.113281 61.539062 L 58.082031 61.539062 L 55.371094 69.742188 L 56.285156 69.742188 L 57.144531 67.085938 L 59.992188 67.085938 L 60.875 69.742188 L 61.820312 69.742188 Z M 57.328125 66.375 L 58.144531 63.90625 C 58.292969 63.390625 58.445312 62.871094 58.554688 62.378906 L 58.585938 62.378906 C 58.691406 62.863281 58.832031 63.378906 59.003906 63.9375 L 59.808594 66.375 Z M 68.191406 68.773438 C 67.78125 68.96875 67.171875 69.109375 66.546875 69.109375 C 64.632812 69.109375 63.472656 67.839844 63.472656 65.683594 C 63.472656 63.421875 64.742188 62.171875 66.601562 62.171875 C 67.246094 62.171875 67.773438 62.324219 68.148438 62.507812 L 68.382812 61.753906 C 68.125 61.625 67.558594 61.417969 66.578125 61.417969 C 64.183594 61.417969 62.539062 63.066406 62.539062 65.714844 C 62.539062 68.496094 64.238281 69.863281 66.34375 69.863281 C 67.277344 69.863281 68.007812 69.679688 68.382812 69.496094 Z M 76.109375 61.808594 C 75.796875 61.613281 75.207031 61.417969 74.433594 61.417969 C 72.941406 61.417969 71.929688 62.335938 71.929688 63.582031 C 71.929688 64.714844 72.769531 65.4375 74.003906 65.898438 C 75.066406 66.332031 75.507812 66.824219 75.507812 67.632812 C 75.507812 68.515625 74.863281 69.109375 73.769531 69.109375 C 73.101562 69.109375 72.445312 68.894531 72.003906 68.601562 L 71.757812 69.347656 C 72.167969 69.636719 72.972656 69.863281 73.714844 69.863281 C 75.476562 69.863281 76.421875 68.859375 76.421875 67.558594 C 76.421875 66.382812 75.746094 65.707031 74.421875 65.144531 C 73.328125 64.683594 72.832031 64.273438 72.832031 63.464844 C 72.832031 62.871094 73.261719 62.171875 74.402344 62.171875 C 75.089844 62.171875 75.605469 62.398438 75.839844 62.550781 Z M 81.652344 66.070312 C 81.652344 64.910156 81.222656 63.734375 79.570312 63.734375 C 78.914062 63.734375 78.257812 63.917969 77.785156 64.230469 L 78 64.84375 C 78.398438 64.5625 78.925781 64.421875 79.429688 64.421875 C 80.761719 64.421875 80.761719 65.542969 80.761719 66.039062 C 78.589844 66.027344 77.367188 66.792969 77.367188 68.203125 C 77.367188 69.054688 77.957031 69.875 79.074219 69.875 C 79.902344 69.875 80.503906 69.453125 80.804688 68.988281 L 80.835938 68.988281 L 80.921875 69.742188 L 81.738281 69.742188 C 81.664062 69.335938 81.652344 68.828125 81.652344 68.34375 Z M 80.773438 67.804688 C 80.773438 68.515625 80.160156 69.183594 79.289062 69.183594 C 78.753906 69.183594 78.28125 68.851562 78.28125 68.097656 C 78.28125 66.859375 79.664062 66.695312 80.773438 66.695312 Z M 84.265625 61.128906 L 83.371094 61.128906 L 83.371094 69.742188 L 84.265625 69.742188 Z M 90.011719 68.851562 C 89.648438 69 89.207031 69.152344 88.476562 69.152344 C 87.421875 69.152344 86.5 68.539062 86.488281 66.910156 L 90.476562 66.910156 C 90.484375 66.773438 90.496094 66.621094 90.496094 66.417969 C 90.496094 65.394531 90.035156 63.734375 88.230469 63.734375 C 86.648438 63.734375 85.617188 65.058594 85.617188 66.902344 C 85.617188 68.65625 86.640625 69.863281 88.347656 69.863281 C 89.238281 69.863281 89.851562 69.65625 90.183594 69.496094 Z M 86.511719 66.246094 C 86.597656 65.4375 87.070312 64.414062 88.144531 64.414062 C 89.292969 64.414062 89.625 65.445312 89.617188 66.246094 Z M 94.828125 64.089844 C 94.515625 63.894531 94.042969 63.734375 93.484375 63.734375 C 92.300781 63.734375 91.570312 64.488281 91.570312 65.40625 C 91.570312 66.113281 92.074219 66.664062 93.066406 67.0625 C 93.839844 67.375 94.148438 67.675781 94.148438 68.226562 C 94.148438 68.753906 93.761719 69.171875 92.976562 69.171875 C 92.472656 69.171875 91.96875 68.957031 91.65625 68.773438 L 91.410156 69.464844 C 91.808594 69.699219 92.367188 69.863281 92.945312 69.863281 C 94.226562 69.863281 95.019531 69.171875 95.019531 68.128906 C 95.019531 67.246094 94.472656 66.75 93.527344 66.363281 C 92.773438 66.039062 92.441406 65.800781 92.441406 65.296875 C 92.441406 64.824219 92.785156 64.421875 93.429688 64.421875 C 93.957031 64.421875 94.355469 64.628906 94.570312 64.769531 Z M 103.949219 65.316406 C 103.796875 66.332031 103.5625 67.171875 103.1875 67.785156 C 102.605469 67.117188 101.800781 66.167969 101.121094 65.351562 L 101.121094 65.308594 C 102.410156 64.640625 102.90625 63.972656 102.90625 63.109375 C 102.90625 62.042969 102.15625 61.410156 101.21875 61.410156 C 99.953125 61.410156 99.265625 62.398438 99.265625 63.390625 C 99.265625 63.980469 99.523438 64.585938 99.941406 65.144531 L 99.941406 65.179688 C 99.015625 65.726562 98.382812 66.503906 98.382812 67.589844 C 98.382812 68.816406 99.273438 69.875 100.777344 69.875 C 101.636719 69.875 102.402344 69.59375 103.109375 68.914062 C 103.445312 69.269531 103.660156 69.496094 103.882812 69.742188 L 104.957031 69.742188 C 104.453125 69.183594 104.054688 68.753906 103.660156 68.324219 C 104.25 67.601562 104.570312 66.566406 104.777344 65.316406 Z M 100.929688 69.183594 C 99.941406 69.183594 99.253906 68.429688 99.253906 67.460938 C 99.253906 66.546875 99.886719 65.996094 100.347656 65.695312 C 101.230469 66.75 102.144531 67.785156 102.660156 68.386719 C 102.230469 68.894531 101.59375 69.183594 100.929688 69.183594 Z M 101.132812 62.054688 C 101.820312 62.054688 102.101562 62.625 102.101562 63.164062 C 102.101562 63.886719 101.550781 64.359375 100.703125 64.84375 C 100.371094 64.390625 100.089844 63.917969 100.089844 63.304688 C 100.089844 62.679688 100.425781 62.054688 101.132812 62.054688 Z M 112.339844 61.808594 C 112.027344 61.613281 111.4375 61.417969 110.664062 61.417969 C 109.171875 61.417969 108.160156 62.335938 108.160156 63.582031 C 108.160156 64.714844 109 65.4375 110.234375 65.898438 C 111.296875 66.332031 111.738281 66.824219 111.738281 67.632812 C 111.738281 68.515625 111.09375 69.109375 109.996094 69.109375 C 109.332031 69.109375 108.675781 68.894531 108.234375 68.601562 L 107.988281 69.347656 C 108.398438 69.636719 109.203125 69.863281 109.945312 69.863281 C 111.707031 69.863281 112.652344 68.859375 112.652344 67.558594 C 112.652344 66.382812 111.976562 65.707031 110.652344 65.144531 C 109.558594 64.683594 109.0625 64.273438 109.0625 63.464844 C 109.0625 62.871094 109.492188 62.171875 110.632812 62.171875 C 111.320312 62.171875 111.835938 62.398438 112.070312 62.550781 Z M 118.023438 68.851562 C 117.660156 69 117.21875 69.152344 116.488281 69.152344 C 115.433594 69.152344 114.511719 68.539062 114.5 66.910156 L 118.484375 66.910156 C 118.496094 66.773438 118.507812 66.621094 118.507812 66.417969 C 118.507812 65.394531 118.046875 63.734375 116.242188 63.734375 C 114.660156 63.734375 113.628906 65.058594 113.628906 66.902344 C 113.628906 68.65625 114.648438 69.863281 116.359375 69.863281 C 117.25 69.863281 117.863281 69.65625 118.195312 69.496094 Z M 114.519531 66.246094 C 114.605469 65.4375 115.082031 64.414062 116.15625 64.414062 C 117.304688 64.414062 117.636719 65.445312 117.625 66.246094 Z M 122.515625 63.777344 C 122.417969 63.765625 122.34375 63.746094 122.246094 63.746094 C 121.527344 63.746094 120.914062 64.273438 120.65625 65.003906 L 120.625 65.003906 L 120.582031 63.875 L 119.796875 63.875 C 119.828125 64.433594 119.839844 65.003906 119.839844 65.628906 L 119.839844 69.742188 L 120.730469 69.742188 L 120.730469 66.554688 C 120.730469 65.566406 121.226562 64.605469 122.191406 64.605469 C 122.320312 64.605469 122.417969 64.617188 122.515625 64.628906 Z M 127.113281 63.875 L 125.953125 67.277344 C 125.769531 67.804688 125.597656 68.300781 125.46875 68.785156 L 125.4375 68.785156 C 125.308594 68.300781 125.148438 67.804688 124.964844 67.277344 L 123.792969 63.875 L 122.835938 63.875 L 124.996094 69.742188 L 125.835938 69.742188 L 128.058594 63.875 Z M 130.101562 62.226562 C 130.101562 61.894531 129.875 61.625 129.519531 61.625 C 129.175781 61.625 128.929688 61.894531 128.929688 62.226562 C 128.929688 62.570312 129.167969 62.839844 129.511719 62.839844 C 129.855469 62.839844 130.101562 62.605469 130.101562 62.226562 Z M 129.960938 63.875 L 129.070312 63.875 L 129.070312 69.742188 L 129.960938 69.742188 Z M 135.527344 68.839844 C 135.238281 68.96875 134.839844 69.128906 134.257812 69.128906 C 133.078125 69.128906 132.226562 68.238281 132.226562 66.816406 C 132.226562 65.554688 132.9375 64.464844 134.292969 64.464844 C 134.859375 64.464844 135.246094 64.628906 135.496094 64.769531 L 135.71875 64.046875 C 135.496094 63.929688 134.96875 63.734375 134.3125 63.734375 C 132.507812 63.734375 131.316406 65.058594 131.316406 66.867188 C 131.316406 68.667969 132.421875 69.863281 134.097656 69.863281 C 134.851562 69.863281 135.429688 69.65625 135.6875 69.527344 Z M 140.910156 68.851562 C 140.542969 69 140.105469 69.152344 139.375 69.152344 C 138.320312 69.152344 137.394531 68.539062 137.386719 66.910156 L 141.371094 66.910156 C 141.382812 66.773438 141.394531 66.621094 141.394531 66.417969 C 141.394531 65.394531 140.929688 63.734375 139.125 63.734375 C 137.546875 63.734375 136.515625 65.058594 136.515625 66.902344 C 136.515625 68.65625 137.535156 69.863281 139.246094 69.863281 C 140.136719 69.863281 140.75 69.65625 141.082031 69.496094 Z M 137.40625 66.246094 C 137.492188 65.4375 137.964844 64.414062 139.039062 64.414062 C 140.191406 64.414062 140.523438 65.445312 140.511719 66.246094 Z M 145.722656 64.089844 C 145.410156 63.894531 144.9375 63.734375 144.378906 63.734375 C 143.199219 63.734375 142.46875 64.488281 142.46875 65.40625 C 142.46875 66.113281 142.972656 66.664062 143.960938 67.0625 C 144.734375 67.375 145.046875 67.675781 145.046875 68.226562 C 145.046875 68.753906 144.660156 69.171875 143.875 69.171875 C 143.371094 69.171875 142.867188 68.957031 142.554688 68.773438 L 142.304688 69.464844 C 142.703125 69.699219 143.261719 69.863281 143.84375 69.863281 C 145.121094 69.863281 145.917969 69.171875 145.917969 68.128906 C 145.917969 67.246094 145.367188 66.75 144.421875 66.363281 C 143.671875 66.039062 143.339844 65.800781 143.339844 65.296875 C 143.339844 64.824219 143.683594 64.421875 144.328125 64.421875 C 144.851562 64.421875 145.25 64.628906 145.464844 64.769531 Z M 145.722656 64.089844 "></path></g></svg>